<?xml version="1.0" encoding="UTF-8"?>
<svg id="Layer_1" data-name="Layer 1" xmlns="http://www.w3.org/2000/svg" version="1.1" xmlns:xlink="http://www.w3.org/1999/xlink" viewBox="0 0 1920 1080">
  <defs>
    <style>
      .cls-1 {
        fill: url(#linear-gradient);
      }

      .cls-1, .cls-2, .cls-3, .cls-4, .cls-5, .cls-6 {
        stroke-width: 0px;
      }

      .cls-7 {
        fill: #191819;
      }

      .cls-7, .cls-8 {
        stroke: #faf9f6;
        stroke-miterlimit: 10;
        stroke-width: .2px;
      }

      .cls-9 {
        font-family: DMMono-Light, 'DM Mono';
        font-weight: 300;
      }

      .cls-9, .cls-10, .cls-11, .cls-12, .cls-13, .cls-14 {
        isolation: isolate;
      }

      .cls-9, .cls-11, .cls-12, .cls-6 {
        fill: #faf9f6;
      }

      .cls-9, .cls-12 {
        font-size: 21.1px;
      }

      .cls-8, .cls-13 {
        fill: #1d1818;
      }

      .cls-2, .cls-14 {
        fill: #5cc2e7;
      }

      .cls-3 {
        fill: none;
      }

      .cls-11 {
        font-family: DMMono-Medium, 'DM Mono';
        font-size: 59.9px;
        font-weight: 500;
      }

      .cls-4 {
        fill: #1b1515;
      }

      .cls-12, .cls-13, .cls-14 {
        font-family: DMMono-Regular, 'DM Mono';
      }

      .cls-5 {
        fill: #202124;
      }

      .cls-15 {
        clip-path: url(#clippath);
      }

      .cls-13, .cls-14 {
        font-size: 26.7px;
      }
    </style>
    <clipPath id="clippath">
      <rect class="cls-3" width="1920" height="1080"/>
    </clipPath>
    <linearGradient id="linear-gradient" x1="-84.1" y1="1185.5" x2="1948.7" y2="-69.9" gradientTransform="translate(0 1080.7) scale(1 -1)" gradientUnits="userSpaceOnUse">
      <stop offset="0" stop-color="#0e0e0e"/>
      <stop offset="1" stop-color="#182634"/>
    </linearGradient>
  </defs>
  <g class="cls-15">
    <g>
      <rect id="BG-2" class="cls-1" width="1920" height="1080"/>
      <circle class="cls-5" cx="1745" cy="-18" r="327"/>
      <circle class="cls-5" cx="67" cy="997" r="198"/>
    </g>
  </g>
  <g id="Duplicate_Logo" data-name="Duplicate Logo">
    <rect class="cls-6" x="88.4" y="303.4" width="448.1" height="448.1" rx="107.4" ry="107.4"/>
    <path class="cls-2" d="M116.3,746c-69.9-55.5-91-139.4-59.2-209,33-72.1,107.6-110.9,186.2-97.8,18.8,3.1,38.2,5.3,57.2,4.6,45.3-1.6,72.1-24.2,82.3-68.5,5.7-24.6,11.5-48.3,30.1-67.3,29.5-30.1,76-38.9,114-20.3,39.1,19.1,61.3,62.7,53.9,105.9-7.3,42.7-41.9,75.7-84.8,80.5-9.8,1.1-19.7,1.2-29.6,2.1-44.2,3.8-71,26.2-79.4,69.8-4.1,21.5-4.2,43.8-5.5,65.8-4.1,68.1-36.6,118.7-97.8,147.5-61.4,28.8-120.9,20.7-167.3-13.3h-.1Z"/>
    <path id="D" class="cls-6" d="M238.3,548.7c16.5,0,30.2,1.6,41,4.8s19.2,7.5,25.4,13.1c6.1,5.5,10.4,11.8,13,18.8,2.5,7,3.8,14.4,3.8,22.2s-1.4,15.1-4.2,22.2c-2.8,7-7.4,13.3-13.9,18.8-6.4,5.5-15,9.9-25.6,13.1-10.6,3.2-23.8,4.8-39.4,4.8H105.9v-117.7h132.4ZM151.9,629.6h84.6c6.9,0,12.7-.5,17.5-1.4,4.8-.9,8.6-2.3,11.5-4.1s5-4.1,6.3-6.9c1.3-2.8,1.9-6,1.9-9.7s-.6-6.9-1.9-9.7-3.4-5.1-6.3-6.9c-2.9-1.8-6.7-3.2-11.5-4.1-4.8-.9-10.6-1.4-17.5-1.4h-84.6v44.1h0Z"/>
    <path id="_" data-name=" " class="cls-6" d="M422.6,360.3h121.3v26.8h-121.3v-26.8h0ZM500.2,336.2v74.9h-33.9v-74.9h33.9Z"/>
  </g>
  <g>
    <g class="cls-10">
      <text class="cls-14" transform="translate(601.5 73.4) scale(.9 1)"><tspan x="0" y="0">DUPLICATE+ LICENSING</tspan></text>
    </g>
    <g class="cls-10">
      <text class="cls-9" transform="translate(1480.5 154.4) scale(.9 1)"><tspan x="0" y="0">Rates in Botswana Pula (Bwp)</tspan></text>
    </g>
    <g class="cls-10">
      <text class="cls-11" transform="translate(602.3 130.5)"><tspan x="0" y="0">PACKAGES &amp; ACCESS</tspan></text>
    </g>
    <g>
      <rect class="cls-4" x="603.3" y="171.8" width="1249.9" height="605" rx="56.1" ry="56.1"/>
      <path class="cls-2" d="M652.3,171.8h1151.7c27.1,0,49.1,22,49.1,49.1v11.2H603.3v-11.2c0-27.1,22-49.1,49.1-49.1h0Z"/>
      <rect class="cls-8" x="603.3" y="232.1" width="1249.9" height="136.2"/>
      <rect class="cls-7" x="603.3" y="368.2" width="1249.9" height="136.2"/>
      <rect class="cls-8" x="603.3" y="504.4" width="1249.9" height="136.2"/>
      <path class="cls-7" d="M603.3,640.6h1249.9v80.1c0,30.9-25.1,56.1-56.1,56.1H659.3c-30.9,0-56.1-25.1-56.1-56.1v-80.1h0Z"/>
    </g>
    <g>
      <g class="cls-10">
        <text class="cls-13" transform="translate(638.4 216.5) scale(.9 1)"><tspan x="0" y="0">TIER</tspan></text>
      </g>
      <g class="cls-10">
        <text class="cls-13" transform="translate(900.6 216.5) scale(.9 1)"><tspan x="0" y="0">PACKAGE</tspan></text>
      </g>
      <g class="cls-10">
        <text class="cls-13" transform="translate(1140.2 216.5) scale(.9 1)"><tspan x="0" y="0">ACCESS</tspan></text>
      </g>
      <g class="cls-10">
        <text class="cls-13" transform="translate(1497.3 216.5) scale(.9 1)"><tspan x="0" y="0">BENEFITS</tspan></text>
      </g>
    </g>
    <g>
      <g>
        <g class="cls-10">
          <text class="cls-14" transform="translate(638.4 295.1) scale(.9 1)"><tspan x="0" y="0">Designer Tier</tspan></text>
        </g>
        <g class="cls-10">
          <text class="cls-9" transform="translate(638.4 323.8) scale(.9 1)"><tspan x="0" y="0">Freelance / Solo</tspan></text>
        </g>
      </g>
      <g class="cls-10">
        <text class="cls-12" transform="translate(886.3 307.1) scale(.9 1)"><tspan x="0" y="0">P350 / Month</tspan></text>
      </g>
      <g class="cls-10">
        <text class="cls-12" transform="translate(1104.8 294.4) scale(.9 1)"><tspan x="0" y="0">2 simultaneous </tspan></text>
        <text class="cls-12" transform="translate(1104.8 319.7) scale(.9 1)"><tspan x="0" y="0">logins / devices</tspan></text>
      </g>
      <g class="cls-10">
        <text class="cls-12" transform="translate(1340.3 294.4) scale(.9 1)"><tspan x="0" y="0">Use limited to Duplicate+ default templates.</tspan></text>
        <text class="cls-12" transform="translate(1340.3 319.7) scale(.9 1)"><tspan x="0" y="0">No manual file preparation included.</tspan></text>
      </g>
    </g>
    <g>
      <g>
        <g class="cls-10">
          <text class="cls-14" transform="translate(640 422.5) scale(.9 1)"><tspan x="0" y="0">Designer Tier</tspan></text>
        </g>
        <g class="cls-10">
          <text class="cls-9" transform="translate(640 451.1) scale(.9 1)"><tspan x="0" y="0">Freelance / Solo</tspan></text>
        </g>
      </g>
      <g class="cls-10">
        <text class="cls-12" transform="translate(887.8 434.4) scale(.9 1)"><tspan x="0" y="0">P3000 / Year</tspan></text>
      </g>
      <g class="cls-10">
        <text class="cls-12" transform="translate(1106.3 421.8) scale(.9 1)"><tspan x="0" y="0">2 simultaneous </tspan></text>
        <text class="cls-12" transform="translate(1106.3 447.1) scale(.9 1)"><tspan x="0" y="0">logins / devices</tspan></text>
      </g>
      <g class="cls-10">
        <text class="cls-12" transform="translate(1341.8 421.8) scale(.9 1)"><tspan x="0" y="0">Includes Duplicate+ default templates plus</tspan></text>
        <text class="cls-12" transform="translate(1341.8 447.1) scale(.9 1)"><tspan x="0" y="0">optional Template Prep available at an</tspan></text>
        <text class="cls-12" transform="translate(1341.8 472.4) scale(.9 1)"><tspan x="0" y="0">extra fee.</tspan></text>
      </g>
    </g>
    <g>
      <g>
        <g class="cls-10">
          <text class="cls-14" transform="translate(638.4 567.3) scale(.9 1)"><tspan x="0" y="0">Manufacturer</tspan></text>
        </g>
        <g class="cls-10">
          <text class="cls-9" transform="translate(638.2 595.8) scale(.8 1)"><tspan x="0" y="0">Enterprise / Factory</tspan></text>
        </g>
      </g>
      <g class="cls-10">
        <text class="cls-12" transform="translate(886.3 579.2) scale(.9 1)"><tspan x="0" y="0">P750 / Month</tspan></text>
      </g>
      <g class="cls-10">
        <text class="cls-12" transform="translate(1104.8 566.5) scale(.9 1)"><tspan x="0" y="0">3 simultaneous </tspan></text>
        <text class="cls-12" transform="translate(1104.8 591.8) scale(.9 1)"><tspan x="0" y="0">logins / devices</tspan></text>
      </g>
      <g class="cls-10">
        <text class="cls-12" transform="translate(1340.3 553.9) scale(.9 1)"><tspan x="0" y="0">Use limited to Duplicate+ default templates.</tspan></text>
        <text class="cls-12" transform="translate(1340.3 579.2) scale(.9 1)"><tspan x="0" y="0">Linking existing factory files requires a </tspan></text>
        <text class="cls-12" transform="translate(1340.3 604.5) scale(.9 1)"><tspan x="0" y="0">one-time onboarding fee of P2,500.</tspan></text>
      </g>
    </g>
    <g>
      <g>
        <g class="cls-10">
          <text class="cls-14" transform="translate(640 703.8) scale(.9 1)"><tspan x="0" y="0">Manufacturer</tspan></text>
        </g>
        <g class="cls-10">
          <text class="cls-9" transform="translate(640 732.4) scale(.8 1)"><tspan x="0" y="0">Enterprise / Factory</tspan></text>
        </g>
      </g>
      <g class="cls-10">
        <text class="cls-12" transform="translate(887.8 715.7) scale(.9 1)"><tspan x="0" y="0">P7,500 / Year</tspan></text>
      </g>
      <g class="cls-10">
        <text class="cls-12" transform="translate(1106.3 703.1) scale(.9 1)"><tspan x="0" y="0">10 simultaneous </tspan></text>
        <text class="cls-12" transform="translate(1106.3 728.4) scale(.9 1)"><tspan x="0" y="0">logins / devices</tspan></text>
      </g>
      <g class="cls-10">
        <text class="cls-12" transform="translate(1341.8 690.4) scale(.9 1)"><tspan x="0" y="0">Includes one free Template Prep session to</tspan></text>
        <text class="cls-12" transform="translate(1341.8 715.7) scale(.9 1)"><tspan x="0" y="0">align existing factory designs to the </tspan></text>
        <text class="cls-12" transform="translate(1341.8 741) scale(.9 1)"><tspan x="0" y="0">Duplicate+ engine.</tspan></text>
      </g>
    </g>
    <g>
      <rect class="cls-8" x="603" y="796.7" width="577.1" height="178.6" rx="56.1" ry="56.1"/>
      <g>
        <g class="cls-10">
          <text class="cls-14" transform="translate(624 842.2) scale(.9 1)"><tspan x="0" y="0">Template Prep</tspan></text>
        </g>
        <g class="cls-10">
          <text class="cls-9" transform="translate(624 870.9) scale(.9 1)"><tspan x="0" y="0">Manual organization of your existing </tspan></text>
          <text class="cls-9" transform="translate(624 896.2) scale(.9 1)"><tspan x="0" y="0">Illustrator layers and masks so the software </tspan></text>
          <text class="cls-9" transform="translate(624 921.5) scale(.9 1)"><tspan x="0" y="0">can read them correctly. This does not include </tspan></text>
          <text class="cls-9" transform="translate(624 946.8) scale(.9 1)"><tspan x="0" y="0">software code changes.</tspan></text>
        </g>
      </g>
    </g>
    <g class="cls-10">
      <text class="cls-9" transform="translate(685 1025.3) scale(.9 1)"><tspan x="0" y="0">Consultancy, manual file fixes and troubleshooting are billed at P500 per hour for all tiers.</tspan></text>
    </g>
    <g>
      <rect class="cls-8" x="1275.3" y="796.4" width="577.1" height="178.6" rx="56.1" ry="56.1"/>
      <g>
        <g class="cls-10">
          <text class="cls-14" transform="translate(1296.3 841.9) scale(.9 1)"><tspan x="0" y="0">New Development</tspan></text>
        </g>
        <g class="cls-10">
          <text class="cls-9" transform="translate(1296.3 870.5) scale(.9 1)"><tspan x="0" y="0">Coding fee for adding new garment types not </tspan></text>
          <text class="cls-9" transform="translate(1296.3 895.8) scale(.9 1)"><tspan x="0" y="0">currently in the software, such as bucket hats </tspan></text>
          <text class="cls-9" transform="translate(1296.3 921.1) scale(.9 1)"><tspan x="0" y="0">or tents. Starts at P5,000 per item.</tspan></text>
        </g>
      </g>
    </g>
  </g>
</svg>